<svg width="192" height="38" viewBox="0 0 192 38" fill="none" xmlns="http://www.w3.org/2000/svg">
<rect width="192" height="38" fill="#EE3643"/>
<mask id="mask0" mask-type="alpha" maskUnits="userSpaceOnUse" x="0" y="0" width="192" height="38">
<rect width="192" height="38" fill="#EE3643"/>
</mask>
<g mask="url(#mask0)">
<rect width="192" height="38" fill="#EE3643"/>
</g>
<path d="M42.2776 24.14C41.4097 24.14 40.663 24.0467 40.0377 23.86V14.34C40.663 14.1533 41.4097 14.06 42.2776 14.06C43.2483 14.06 43.9576 14.27 44.4056 14.69C44.8536 15.11 45.0776 15.7633 45.0776 16.65C45.0776 17.6207 44.7043 18.3113 43.9576 18.722V18.778C44.9843 19.0767 45.4976 19.9307 45.4976 21.34C45.4976 22.0027 45.3903 22.5393 45.1756 22.95C44.9703 23.3607 44.6343 23.664 44.1676 23.86C43.701 24.0467 43.071 24.14 42.2776 24.14ZM42.1376 18.4C42.6976 18.4 43.1176 18.2553 43.3976 17.966C43.6776 17.6767 43.8176 17.238 43.8176 16.65C43.8176 15.53 43.2576 14.97 42.1376 14.97H41.2977V18.4H42.1376ZM42.2776 23.23C42.9776 23.23 43.477 23.0853 43.7756 22.796C44.0836 22.4973 44.2376 22.012 44.2376 21.34C44.2376 20.612 44.0836 20.094 43.7756 19.786C43.477 19.4687 42.9776 19.31 42.2776 19.31H41.2977V23.23H42.2776ZM49.8376 24.14C49.147 24.14 48.5776 23.9907 48.1296 23.692C47.6816 23.384 47.341 22.8613 47.1076 22.124C46.8743 21.3867 46.7576 20.3787 46.7576 19.1C46.7576 17.8307 46.8743 16.8273 47.1076 16.09C47.341 15.3527 47.6676 14.83 48.0876 14.522C48.517 14.214 49.0536 14.06 49.6976 14.06C50.0896 14.06 50.4816 14.088 50.8736 14.144C51.2656 14.2 51.5736 14.2653 51.7976 14.34V14.97H49.9776C49.3523 14.97 48.867 15.2733 48.5216 15.88C48.1856 16.4867 48.0176 17.56 48.0176 19.1C48.0176 20.1547 48.1016 20.9853 48.2696 21.592C48.4376 22.1987 48.6756 22.6233 48.9836 22.866C49.2916 23.1087 49.6696 23.23 50.1176 23.23H51.9376V23.86C51.7136 23.9347 51.4056 24 51.0136 24.056C50.631 24.112 50.239 24.14 49.8376 24.14ZM53.1216 24V14.2H57.8816V15.18H54.3816V18.4H57.4616V19.38H54.3816V23.02H57.8816V24H53.1216ZM62.9244 24V14.2H68.3844V24H67.1244V15.18H64.1844V24H62.9244ZM70.3482 14.34C70.9735 14.1533 71.7202 14.06 72.5882 14.06C73.3535 14.06 73.9555 14.1673 74.3942 14.382C74.8422 14.5967 75.1642 14.956 75.3602 15.46C75.5655 15.964 75.6682 16.664 75.6682 17.56C75.6682 18.4653 75.5748 19.1793 75.3882 19.702C75.2015 20.2153 74.9122 20.584 74.5202 20.808C74.1375 21.0227 73.6335 21.13 73.0082 21.13C72.8028 21.13 72.5648 21.116 72.2942 21.088C72.0235 21.06 71.7948 21.0273 71.6082 20.99V24H70.3482V14.34ZM72.5882 20.15C73.0268 20.15 73.3768 20.0753 73.6382 19.926C73.8995 19.7673 74.0908 19.5013 74.2122 19.128C74.3428 18.7547 74.4082 18.232 74.4082 17.56C74.4082 16.888 74.3428 16.3653 74.2122 15.992C74.0908 15.6187 73.8995 15.3573 73.6382 15.208C73.3768 15.0493 73.0268 14.97 72.5882 14.97H71.6082V20.15H72.5882ZM79.9415 24.14C79.2788 24.14 78.7281 23.9907 78.2895 23.692C77.8508 23.384 77.5148 22.8613 77.2815 22.124C77.0481 21.3773 76.9315 20.3693 76.9315 19.1C76.9315 17.8307 77.0481 16.8273 77.2815 16.09C77.5148 15.3433 77.8508 14.8207 78.2895 14.522C78.7281 14.214 79.2788 14.06 79.9415 14.06C80.6041 14.06 81.1548 14.214 81.5935 14.522C82.0321 14.8207 82.3681 15.3433 82.6015 16.09C82.8348 16.8273 82.9515 17.8307 82.9515 19.1C82.9515 20.3693 82.8348 21.3773 82.6015 22.124C82.3681 22.8613 82.0321 23.384 81.5935 23.692C81.1548 23.9907 80.6041 24.14 79.9415 24.14ZM79.9415 23.3C81.1081 23.3 81.6915 21.9 81.6915 19.1C81.6915 16.3 81.1081 14.9 79.9415 14.9C78.7748 14.9 78.1915 16.3 78.1915 19.1C78.1915 21.9 78.7748 23.3 79.9415 23.3ZM84.6353 24V14.2H85.8953V21.48H85.9653L88.7653 14.2H90.2353V24H88.9753V16.72H88.9053L86.0353 24H84.6353ZM93.3858 24.14C93.0498 24.14 92.6952 24.112 92.3218 24.056C91.9485 24 91.6498 23.9347 91.4258 23.86V23.23H93.3858C94.0858 23.23 94.5852 23.0853 94.8838 22.796C95.1918 22.4973 95.3458 22.012 95.3458 21.34C95.3458 20.64 95.1918 20.1407 94.8838 19.842C94.5852 19.534 94.0858 19.38 93.3858 19.38H92.4058V18.4H93.2458C93.8712 18.4 94.3285 18.26 94.6178 17.98C94.9165 17.6907 95.0658 17.2473 95.0658 16.65C95.0658 16.0807 94.9165 15.6607 94.6178 15.39C94.3285 15.11 93.8712 14.97 93.2458 14.97H91.5658V14.34C91.7805 14.2653 92.0698 14.2 92.4338 14.144C92.7978 14.088 93.1152 14.06 93.3858 14.06C94.4218 14.06 95.1685 14.27 95.6258 14.69C96.0925 15.11 96.3258 15.7633 96.3258 16.65C96.3258 17.2007 96.2232 17.6487 96.0178 17.994C95.8125 18.33 95.4952 18.596 95.0658 18.792V18.848C95.5978 18.9973 95.9852 19.2913 96.2278 19.73C96.4798 20.1687 96.6058 20.7053 96.6058 21.34C96.6058 22.0027 96.4985 22.5393 96.2838 22.95C96.0785 23.3607 95.7425 23.664 95.2758 23.86C94.8092 24.0467 94.1792 24.14 93.3858 24.14ZM100.383 24.14C99.5151 24.14 98.7684 24.0467 98.1431 23.86V14.34C98.7684 14.1533 99.5151 14.06 100.383 14.06C101.354 14.06 102.063 14.27 102.511 14.69C102.959 15.11 103.183 15.7633 103.183 16.65C103.183 17.6207 102.81 18.3113 102.063 18.722V18.778C103.09 19.0767 103.603 19.9307 103.603 21.34C103.603 22.0027 103.496 22.5393 103.281 22.95C103.076 23.3607 102.74 23.664 102.273 23.86C101.806 24.0467 101.176 24.14 100.383 24.14ZM100.243 18.4C100.803 18.4 101.223 18.2553 101.503 17.966C101.783 17.6767 101.923 17.238 101.923 16.65C101.923 15.53 101.363 14.97 100.243 14.97H99.4031V18.4H100.243ZM100.383 23.23C101.083 23.23 101.582 23.0853 101.881 22.796C102.189 22.4973 102.343 22.012 102.343 21.34C102.343 20.612 102.189 20.094 101.881 19.786C101.582 19.4687 101.083 19.31 100.383 19.31H99.4031V23.23H100.383ZM107.873 24.14C107.21 24.14 106.66 23.9907 106.221 23.692C105.782 23.384 105.446 22.8613 105.213 22.124C104.98 21.3773 104.863 20.3693 104.863 19.1C104.863 17.8307 104.98 16.8273 105.213 16.09C105.446 15.3433 105.782 14.8207 106.221 14.522C106.66 14.214 107.21 14.06 107.873 14.06C108.536 14.06 109.086 14.214 109.525 14.522C109.964 14.8207 110.3 15.3433 110.533 16.09C110.766 16.8273 110.883 17.8307 110.883 19.1C110.883 20.3693 110.766 21.3773 110.533 22.124C110.3 22.8613 109.964 23.384 109.525 23.692C109.086 23.9907 108.536 24.14 107.873 24.14ZM107.873 23.3C109.04 23.3 109.623 21.9 109.623 19.1C109.623 16.3 109.04 14.9 107.873 14.9C106.706 14.9 106.123 16.3 106.123 19.1C106.123 21.9 106.706 23.3 107.873 23.3ZM111.59 23.02H112.29C112.29 23.048 112.346 22.9313 112.458 22.67C112.58 22.3993 112.692 22.054 112.794 21.634C112.897 21.2047 112.962 20.71 112.99 20.15L113.27 14.2H117.82V23.02H118.73V26.1H117.96C117.755 25.54 117.615 24.84 117.54 24H112.78C112.715 24.84 112.575 25.54 112.36 26.1H111.59V23.02ZM116.56 23.02V15.18H114.488L114.25 20.15C114.222 20.71 114.157 21.2047 114.054 21.634C113.952 22.054 113.84 22.3993 113.718 22.67C113.606 22.9313 113.55 23.048 113.55 23.02H116.56ZM120.059 24V14.2H121.319V21.48H121.389L124.189 14.2H125.659V24H124.399V16.72H124.329L121.459 24H120.059ZM129.02 24V15.18H126.78V14.2H132.52V15.18H130.28V24H129.02ZM133.635 24V14.2H138.395V15.18H134.895V18.4H137.975V19.38H134.895V23.02H138.395V24H133.635ZM139.798 24.14C139.593 24.14 139.401 24.1167 139.224 24.07C139.047 24.0327 138.958 24.0093 138.958 24V23.37C139.369 23.37 139.695 23.1927 139.938 22.838C140.181 22.4833 140.321 21.8907 140.358 21.06L140.708 14.2H145.398V24H144.138V15.18H141.926L141.618 21.06C141.562 22.1147 141.366 22.894 141.03 23.398C140.703 23.8927 140.293 24.14 139.798 24.14ZM147.362 24V14.2H148.622V21.48H148.692L151.492 14.2H152.962V24H151.702V16.72H151.632L148.762 24H147.362Z" fill="white"/>
</svg>
